<svg xmlns="http://www.w3.org/2000/svg" xmlns:xlink="http://www.w3.org/1999/xlink" style="position:absolute;top:0;left:0" width="100%" height="15" version="1.1" viewBox="0 0 2954 15"><g fill="none" fill-rule="evenodd" stroke="none" stroke-width="1"><g><g><line x1=".5" x2=".5" y1="-10" y2="15" stroke="#000" stroke-linecap="round"/><line x1="8.5" x2="8.5" y1="-10" y2="7" stroke="#000" stroke-linecap="round"/><line x1="30.5" x2="30.5" y1="-10" y2="7" stroke="#000" stroke-linecap="round"/><line x1="51.5" x2="51.5" y1="-10" y2="7" stroke="#000" stroke-linecap="round"/><line x1="15.5" x2="15.5" y1="-10" y2="7" stroke="#000" stroke-linecap="round"/><line x1="37.5" x2="37.5" y1="-10" y2="7" stroke="#000" stroke-linecap="round"/><line x1="59.5" x2="59.5" y1="-10" y2="7" stroke="#000" stroke-linecap="round"/><line x1="23.5" x2="23.5" y1="-10" y2="7" stroke="#000" stroke-linecap="round"/><line x1="45.5" x2="45.5" y1="-10" y2="7" stroke="#000" stroke-linecap="round"/><line x1="67.5" x2="67.5" y1="-10" y2="7" stroke="#000" stroke-linecap="round"/></g><g transform="translate(592, 0)"><line x1=".5" x2=".5" y1="-10" y2="15" stroke="#000" stroke-linecap="round"/><line x1="8.5" x2="8.5" y1="-10" y2="7" stroke="#000" stroke-linecap="round"/><line x1="30.5" x2="30.5" y1="-10" y2="7" stroke="#000" stroke-linecap="round"/><line x1="51.5" x2="51.5" y1="-10" y2="7" stroke="#000" stroke-linecap="round"/><line x1="15.5" x2="15.5" y1="-10" y2="7" stroke="#000" stroke-linecap="round"/><line x1="37.5" x2="37.5" y1="-10" y2="7" stroke="#000" stroke-linecap="round"/><line x1="59.5" x2="59.5" y1="-10" y2="7" stroke="#000" stroke-linecap="round"/><line x1="23.5" x2="23.5" y1="-10" y2="7" stroke="#000" stroke-linecap="round"/><line x1="45.5" x2="45.5" y1="-10" y2="7" stroke="#000" stroke-linecap="round"/><line x1="67.5" x2="67.5" y1="-10" y2="7" stroke="#000" stroke-linecap="round"/><text id="80" fill="#000" font-size="18" transform="rotate(180)"><tspan x="1" y="-7">80</tspan></text></g><g transform="translate(1184, 0)"><line x1=".5" x2=".5" y1="-10" y2="15" stroke="#000" stroke-linecap="round"/><line x1="8.5" x2="8.5" y1="-10" y2="7" stroke="#000" stroke-linecap="round"/><line x1="30.5" x2="30.5" y1="-10" y2="7" stroke="#000" stroke-linecap="round"/><line x1="51.5" x2="51.5" y1="-10" y2="7" stroke="#000" stroke-linecap="round"/><line x1="15.5" x2="15.5" y1="-10" y2="7" stroke="#000" stroke-linecap="round"/><line x1="37.5" x2="37.5" y1="-10" y2="7" stroke="#000" stroke-linecap="round"/><line x1="59.5" x2="59.5" y1="-10" y2="7" stroke="#000" stroke-linecap="round"/><line x1="23.5" x2="23.5" y1="-10" y2="7" stroke="#000" stroke-linecap="round"/><line x1="45.5" x2="45.5" y1="-10" y2="7" stroke="#000" stroke-linecap="round"/><line x1="67.5" x2="67.5" y1="-10" y2="7" stroke="#000" stroke-linecap="round"/><text id="160" fill="#000" font-size="18" transform="rotate(180)"><tspan x="1" y="-7">160</tspan></text></g><g transform="translate(1776, 0)"><line x1=".5" x2=".5" y1="-10" y2="15" stroke="#000" stroke-linecap="round"/><line x1="8.5" x2="8.5" y1="-10" y2="7" stroke="#000" stroke-linecap="round"/><line x1="30.5" x2="30.5" y1="-10" y2="7" stroke="#000" stroke-linecap="round"/><line x1="51.5" x2="51.5" y1="-10" y2="7" stroke="#000" stroke-linecap="round"/><line x1="15.5" x2="15.5" y1="-10" y2="7" stroke="#000" stroke-linecap="round"/><line x1="37.5" x2="37.5" y1="-10" y2="7" stroke="#000" stroke-linecap="round"/><line x1="59.5" x2="59.5" y1="-10" y2="7" stroke="#000" stroke-linecap="round"/><line x1="23.5" x2="23.5" y1="-10" y2="7" stroke="#000" stroke-linecap="round"/><line x1="45.5" x2="45.5" y1="-10" y2="7" stroke="#000" stroke-linecap="round"/><line x1="67.5" x2="67.5" y1="-10" y2="7" stroke="#000" stroke-linecap="round"/><text id="240" fill="#000" font-size="18" transform="rotate(180)"><tspan x="1" y="-7">240</tspan></text></g><g transform="translate(2590, 0)"><line x1=".5" x2=".5" y1="-10" y2="15" stroke="#000" stroke-linecap="round"/><line x1="8.5" x2="8.5" y1="-10" y2="7" stroke="#000" stroke-linecap="round"/><line x1="30.5" x2="30.5" y1="-10" y2="7" stroke="#000" stroke-linecap="round"/><line x1="51.5" x2="51.5" y1="-10" y2="7" stroke="#000" stroke-linecap="round"/><line x1="15.5" x2="15.5" y1="-10" y2="7" stroke="#000" stroke-linecap="round"/><line x1="37.5" x2="37.5" y1="-10" y2="7" stroke="#000" stroke-linecap="round"/><line x1="59.5" x2="59.5" y1="-10" y2="7" stroke="#000" stroke-linecap="round"/><line x1="23.5" x2="23.5" y1="-10" y2="7" stroke="#000" stroke-linecap="round"/><line x1="45.5" x2="45.5" y1="-10" y2="7" stroke="#000" stroke-linecap="round"/><line x1="67.5" x2="67.5" y1="-10" y2="7" stroke="#000" stroke-linecap="round"/><text id="350" fill="#000" font-size="18" transform="rotate(180)"><tspan x="1" y="-7">350</tspan></text></g><g transform="translate(296, 0)"><line x1=".5" x2=".5" y1="-10" y2="15" stroke="#000" stroke-linecap="round"/><line x1="8.5" x2="8.5" y1="-10" y2="7" stroke="#000" stroke-linecap="round"/><line x1="30.5" x2="30.5" y1="-10" y2="7" stroke="#000" stroke-linecap="round"/><line x1="51.5" x2="51.5" y1="-10" y2="7" stroke="#000" stroke-linecap="round"/><line x1="15.5" x2="15.5" y1="-10" y2="7" stroke="#000" stroke-linecap="round"/><line x1="37.5" x2="37.5" y1="-10" y2="7" stroke="#000" stroke-linecap="round"/><line x1="59.5" x2="59.5" y1="-10" y2="7" stroke="#000" stroke-linecap="round"/><line x1="23.5" x2="23.5" y1="-10" y2="7" stroke="#000" stroke-linecap="round"/><line x1="45.5" x2="45.5" y1="-10" y2="7" stroke="#000" stroke-linecap="round"/><line x1="67.5" x2="67.5" y1="-10" y2="7" stroke="#000" stroke-linecap="round"/><text id="40" fill="#000" font-size="18" transform="rotate(180)"><tspan x="2" y="-7">40</tspan></text></g><g transform="translate(888, 0)"><line x1=".5" x2=".5" y1="-10" y2="15" stroke="#000" stroke-linecap="round"/><line x1="8.5" x2="8.5" y1="-10" y2="7" stroke="#000" stroke-linecap="round"/><line x1="30.5" x2="30.5" y1="-10" y2="7" stroke="#000" stroke-linecap="round"/><line x1="51.5" x2="51.5" y1="-10" y2="7" stroke="#000" stroke-linecap="round"/><line x1="15.5" x2="15.5" y1="-10" y2="7" stroke="#000" stroke-linecap="round"/><line x1="37.5" x2="37.5" y1="-10" y2="7" stroke="#000" stroke-linecap="round"/><line x1="59.5" x2="59.5" y1="-10" y2="7" stroke="#000" stroke-linecap="round"/><line x1="23.5" x2="23.5" y1="-10" y2="7" stroke="#000" stroke-linecap="round"/><line x1="45.5" x2="45.5" y1="-10" y2="7" stroke="#000" stroke-linecap="round"/><line x1="67.5" x2="67.5" y1="-10" y2="7" stroke="#000" stroke-linecap="round"/><text id="120" fill="#000" font-size="18" transform="rotate(180)"><tspan x="1" y="-7">120</tspan></text></g><g transform="translate(1480, 0)"><line x1=".5" x2=".5" y1="-10" y2="15" stroke="#000" stroke-linecap="round"/><line x1="8.5" x2="8.5" y1="-10" y2="7" stroke="#000" stroke-linecap="round"/><line x1="30.5" x2="30.5" y1="-10" y2="7" stroke="#000" stroke-linecap="round"/><line x1="51.5" x2="51.5" y1="-10" y2="7" stroke="#000" stroke-linecap="round"/><line x1="15.5" x2="15.5" y1="-10" y2="7" stroke="#000" stroke-linecap="round"/><line x1="37.5" x2="37.5" y1="-10" y2="7" stroke="#000" stroke-linecap="round"/><line x1="59.5" x2="59.5" y1="-10" y2="7" stroke="#000" stroke-linecap="round"/><line x1="23.5" x2="23.5" y1="-10" y2="7" stroke="#000" stroke-linecap="round"/><line x1="45.5" x2="45.5" y1="-10" y2="7" stroke="#000" stroke-linecap="round"/><line x1="67.5" x2="67.5" y1="-10" y2="7" stroke="#000" stroke-linecap="round"/><text id="200" fill="#000" font-size="18" transform="rotate(180)"><tspan x="1" y="-7">200</tspan></text></g><g transform="translate(2072, 0)"><line x1=".5" x2=".5" y1="-10" y2="15" stroke="#000" stroke-linecap="round"/><line x1="8.5" x2="8.5" y1="-10" y2="7" stroke="#000" stroke-linecap="round"/><line x1="30.5" x2="30.5" y1="-10" y2="7" stroke="#000" stroke-linecap="round"/><line x1="51.5" x2="51.5" y1="-10" y2="7" stroke="#000" stroke-linecap="round"/><line x1="15.5" x2="15.5" y1="-10" y2="7" stroke="#000" stroke-linecap="round"/><line x1="37.5" x2="37.5" y1="-10" y2="7" stroke="#000" stroke-linecap="round"/><line x1="59.5" x2="59.5" y1="-10" y2="7" stroke="#000" stroke-linecap="round"/><line x1="23.5" x2="23.5" y1="-10" y2="7" stroke="#000" stroke-linecap="round"/><line x1="45.5" x2="45.5" y1="-10" y2="7" stroke="#000" stroke-linecap="round"/><line x1="67.5" x2="67.5" y1="-10" y2="7" stroke="#000" stroke-linecap="round"/><text id="280" fill="#000" font-size="18" transform="rotate(180)"><tspan x="1" y="-7">280</tspan></text></g><g transform="translate(2886, 0)"><line x1=".5" x2=".5" y1="-10" y2="15" stroke="#000" stroke-linecap="round"/><line x1="8.5" x2="8.5" y1="-10" y2="7" stroke="#000" stroke-linecap="round"/><line x1="30.5" x2="30.5" y1="-10" y2="7" stroke="#000" stroke-linecap="round"/><line x1="51.5" x2="51.5" y1="-10" y2="7" stroke="#000" stroke-linecap="round"/><line x1="15.5" x2="15.5" y1="-10" y2="7" stroke="#000" stroke-linecap="round"/><line x1="37.5" x2="37.5" y1="-10" y2="7" stroke="#000" stroke-linecap="round"/><line x1="59.5" x2="59.5" y1="-10" y2="7" stroke="#000" stroke-linecap="round"/><line x1="23.5" x2="23.5" y1="-10" y2="7" stroke="#000" stroke-linecap="round"/><line x1="45.5" x2="45.5" y1="-10" y2="7" stroke="#000" stroke-linecap="round"/><line x1="67.5" x2="67.5" y1="-10" y2="7" stroke="#000" stroke-linecap="round"/><text id="390" fill="#000" font-size="18" transform="rotate(180)"><tspan x="1" y="-7">390</tspan></text></g><g transform="translate(148, 0)"><line x1=".5" x2=".5" y1="-10" y2="15" stroke="#000" stroke-linecap="round"/><line x1="8.5" x2="8.5" y1="-10" y2="7" stroke="#000" stroke-linecap="round"/><line x1="30.5" x2="30.5" y1="-10" y2="7" stroke="#000" stroke-linecap="round"/><line x1="51.5" x2="51.5" y1="-10" y2="7" stroke="#000" stroke-linecap="round"/><line x1="15.5" x2="15.5" y1="-10" y2="7" stroke="#000" stroke-linecap="round"/><line x1="37.5" x2="37.5" y1="-10" y2="7" stroke="#000" stroke-linecap="round"/><line x1="59.5" x2="59.5" y1="-10" y2="7" stroke="#000" stroke-linecap="round"/><line x1="23.5" x2="23.5" y1="-10" y2="7" stroke="#000" stroke-linecap="round"/><line x1="45.5" x2="45.5" y1="-10" y2="7" stroke="#000" stroke-linecap="round"/><line x1="67.5" x2="67.5" y1="-10" y2="7" stroke="#000" stroke-linecap="round"/><text id="20" fill="#000" font-size="18" transform="rotate(180)"><tspan x="1" y="-7">20</tspan></text></g><g transform="translate(740, 0)"><line x1=".5" x2=".5" y1="-10" y2="15" stroke="#000" stroke-linecap="round"/><line x1="8.5" x2="8.5" y1="-10" y2="7" stroke="#000" stroke-linecap="round"/><line x1="30.5" x2="30.5" y1="-10" y2="7" stroke="#000" stroke-linecap="round"/><line x1="51.5" x2="51.5" y1="-10" y2="7" stroke="#000" stroke-linecap="round"/><line x1="15.5" x2="15.5" y1="-10" y2="7" stroke="#000" stroke-linecap="round"/><line x1="37.5" x2="37.5" y1="-10" y2="7" stroke="#000" stroke-linecap="round"/><line x1="59.5" x2="59.5" y1="-10" y2="7" stroke="#000" stroke-linecap="round"/><line x1="23.5" x2="23.5" y1="-10" y2="7" stroke="#000" stroke-linecap="round"/><line x1="45.5" x2="45.5" y1="-10" y2="7" stroke="#000" stroke-linecap="round"/><line x1="67.5" x2="67.5" y1="-10" y2="7" stroke="#000" stroke-linecap="round"/><text id="100" fill="#000" font-size="18" transform="rotate(180)"><tspan x="1" y="-7">100</tspan></text></g><g transform="translate(1332, 0)"><line x1=".5" x2=".5" y1="-10" y2="15" stroke="#000" stroke-linecap="round"/><line x1="8.5" x2="8.5" y1="-10" y2="7" stroke="#000" stroke-linecap="round"/><line x1="30.5" x2="30.5" y1="-10" y2="7" stroke="#000" stroke-linecap="round"/><line x1="51.5" x2="51.5" y1="-10" y2="7" stroke="#000" stroke-linecap="round"/><line x1="15.5" x2="15.5" y1="-10" y2="7" stroke="#000" stroke-linecap="round"/><line x1="37.5" x2="37.5" y1="-10" y2="7" stroke="#000" stroke-linecap="round"/><line x1="59.5" x2="59.5" y1="-10" y2="7" stroke="#000" stroke-linecap="round"/><line x1="23.5" x2="23.5" y1="-10" y2="7" stroke="#000" stroke-linecap="round"/><line x1="45.5" x2="45.5" y1="-10" y2="7" stroke="#000" stroke-linecap="round"/><line x1="67.5" x2="67.5" y1="-10" y2="7" stroke="#000" stroke-linecap="round"/><text id="180" fill="#000" font-size="18" transform="rotate(180)"><tspan x="1" y="-7">180</tspan></text></g><g transform="translate(1924, 0)"><line x1=".5" x2=".5" y1="-10" y2="15" stroke="#000" stroke-linecap="round"/><line x1="8.5" x2="8.5" y1="-10" y2="7" stroke="#000" stroke-linecap="round"/><line x1="30.5" x2="30.5" y1="-10" y2="7" stroke="#000" stroke-linecap="round"/><line x1="51.5" x2="51.5" y1="-10" y2="7" stroke="#000" stroke-linecap="round"/><line x1="15.5" x2="15.5" y1="-10" y2="7" stroke="#000" stroke-linecap="round"/><line x1="37.5" x2="37.5" y1="-10" y2="7" stroke="#000" stroke-linecap="round"/><line x1="59.5" x2="59.5" y1="-10" y2="7" stroke="#000" stroke-linecap="round"/><line x1="23.5" x2="23.5" y1="-10" y2="7" stroke="#000" stroke-linecap="round"/><line x1="45.5" x2="45.5" y1="-10" y2="7" stroke="#000" stroke-linecap="round"/><line x1="67.5" x2="67.5" y1="-10" y2="7" stroke="#000" stroke-linecap="round"/><text id="260" fill="#000" font-size="18" transform="rotate(180)"><tspan x="1" y="-7">260</tspan></text></g><g transform="translate(2738, 0)"><line x1=".5" x2=".5" y1="-10" y2="15" stroke="#000" stroke-linecap="round"/><line x1="8.5" x2="8.5" y1="-10" y2="7" stroke="#000" stroke-linecap="round"/><line x1="30.5" x2="30.5" y1="-10" y2="7" stroke="#000" stroke-linecap="round"/><line x1="51.5" x2="51.5" y1="-10" y2="7" stroke="#000" stroke-linecap="round"/><line x1="15.5" x2="15.5" y1="-10" y2="7" stroke="#000" stroke-linecap="round"/><line x1="37.5" x2="37.5" y1="-10" y2="7" stroke="#000" stroke-linecap="round"/><line x1="59.5" x2="59.5" y1="-10" y2="7" stroke="#000" stroke-linecap="round"/><line x1="23.5" x2="23.5" y1="-10" y2="7" stroke="#000" stroke-linecap="round"/><line x1="45.5" x2="45.5" y1="-10" y2="7" stroke="#000" stroke-linecap="round"/><line x1="67.5" x2="67.5" y1="-10" y2="7" stroke="#000" stroke-linecap="round"/><text id="370" fill="#000" font-size="18" transform="rotate(180)"><tspan x="1" y="-7">370</tspan></text></g><g transform="translate(444, 0)"><line x1=".5" x2=".5" y1="-10" y2="15" stroke="#000" stroke-linecap="round"/><line x1="8.5" x2="8.5" y1="-10" y2="7" stroke="#000" stroke-linecap="round"/><line x1="30.5" x2="30.5" y1="-10" y2="7" stroke="#000" stroke-linecap="round"/><line x1="51.5" x2="51.5" y1="-10" y2="7" stroke="#000" stroke-linecap="round"/><line x1="15.5" x2="15.5" y1="-10" y2="7" stroke="#000" stroke-linecap="round"/><line x1="37.5" x2="37.5" y1="-10" y2="7" stroke="#000" stroke-linecap="round"/><line x1="59.5" x2="59.5" y1="-10" y2="7" stroke="#000" stroke-linecap="round"/><line x1="23.5" x2="23.5" y1="-10" y2="7" stroke="#000" stroke-linecap="round"/><line x1="45.5" x2="45.5" y1="-10" y2="7" stroke="#000" stroke-linecap="round"/><line x1="67.5" x2="67.5" y1="-10" y2="7" stroke="#000" stroke-linecap="round"/><text id="60" fill="#000" font-size="18" transform="rotate(180)"><tspan x="1" y="-7">60</tspan></text></g><g transform="translate(1036, 0)"><line x1=".5" x2=".5" y1="-10" y2="15" stroke="#000" stroke-linecap="round"/><line x1="8.5" x2="8.5" y1="-10" y2="7" stroke="#000" stroke-linecap="round"/><line x1="30.5" x2="30.5" y1="-10" y2="7" stroke="#000" stroke-linecap="round"/><line x1="51.5" x2="51.5" y1="-10" y2="7" stroke="#000" stroke-linecap="round"/><line x1="15.5" x2="15.5" y1="-10" y2="7" stroke="#000" stroke-linecap="round"/><line x1="37.5" x2="37.5" y1="-10" y2="7" stroke="#000" stroke-linecap="round"/><line x1="59.5" x2="59.5" y1="-10" y2="7" stroke="#000" stroke-linecap="round"/><line x1="23.5" x2="23.5" y1="-10" y2="7" stroke="#000" stroke-linecap="round"/><line x1="45.5" x2="45.5" y1="-10" y2="7" stroke="#000" stroke-linecap="round"/><line x1="67.5" x2="67.5" y1="-10" y2="7" stroke="#000" stroke-linecap="round"/><text id="140" fill="#000" font-size="18" transform="rotate(180)"><tspan x="1" y="-7">140</tspan></text></g><g transform="translate(1628, 0)"><line x1=".5" x2=".5" y1="-10" y2="15" stroke="#000" stroke-linecap="round"/><line x1="8.5" x2="8.5" y1="-10" y2="7" stroke="#000" stroke-linecap="round"/><line x1="30.5" x2="30.5" y1="-10" y2="7" stroke="#000" stroke-linecap="round"/><line x1="51.5" x2="51.5" y1="-10" y2="7" stroke="#000" stroke-linecap="round"/><line x1="15.5" x2="15.5" y1="-10" y2="7" stroke="#000" stroke-linecap="round"/><line x1="37.5" x2="37.5" y1="-10" y2="7" stroke="#000" stroke-linecap="round"/><line x1="59.5" x2="59.5" y1="-10" y2="7" stroke="#000" stroke-linecap="round"/><line x1="23.5" x2="23.5" y1="-10" y2="7" stroke="#000" stroke-linecap="round"/><line x1="45.5" x2="45.5" y1="-10" y2="7" stroke="#000" stroke-linecap="round"/><line x1="67.5" x2="67.5" y1="-10" y2="7" stroke="#000" stroke-linecap="round"/><text id="220" fill="#000" font-size="18" transform="rotate(180)"><tspan x="1" y="-7">220</tspan></text></g><g transform="translate(2442, 0)"><line x1=".5" x2=".5" y1="-10" y2="15" stroke="#000" stroke-linecap="round"/><line x1="8.5" x2="8.5" y1="-10" y2="7" stroke="#000" stroke-linecap="round"/><line x1="30.5" x2="30.5" y1="-10" y2="7" stroke="#000" stroke-linecap="round"/><line x1="51.5" x2="51.5" y1="-10" y2="7" stroke="#000" stroke-linecap="round"/><line x1="15.5" x2="15.5" y1="-10" y2="7" stroke="#000" stroke-linecap="round"/><line x1="37.5" x2="37.5" y1="-10" y2="7" stroke="#000" stroke-linecap="round"/><line x1="59.5" x2="59.5" y1="-10" y2="7" stroke="#000" stroke-linecap="round"/><line x1="23.5" x2="23.5" y1="-10" y2="7" stroke="#000" stroke-linecap="round"/><line x1="45.5" x2="45.5" y1="-10" y2="7" stroke="#000" stroke-linecap="round"/><line x1="67.5" x2="67.5" y1="-10" y2="7" stroke="#000" stroke-linecap="round"/><text id="330" fill="#000" font-size="18" transform="rotate(180)"><tspan x="1" y="-7">330</tspan></text></g><g transform="translate(2220, 0)"><line x1=".5" x2=".5" y1="-10" y2="15" stroke="#000" stroke-linecap="round"/><line x1="8.5" x2="8.5" y1="-10" y2="7" stroke="#000" stroke-linecap="round"/><line x1="30.5" x2="30.5" y1="-10" y2="7" stroke="#000" stroke-linecap="round"/><line x1="51.5" x2="51.5" y1="-10" y2="7" stroke="#000" stroke-linecap="round"/><line x1="15.5" x2="15.5" y1="-10" y2="7" stroke="#000" stroke-linecap="round"/><line x1="37.5" x2="37.5" y1="-10" y2="7" stroke="#000" stroke-linecap="round"/><line x1="59.5" x2="59.5" y1="-10" y2="7" stroke="#000" stroke-linecap="round"/><line x1="23.5" x2="23.5" y1="-10" y2="7" stroke="#000" stroke-linecap="round"/><line x1="45.5" x2="45.5" y1="-10" y2="7" stroke="#000" stroke-linecap="round"/><line x1="67.5" x2="67.5" y1="-10" y2="7" stroke="#000" stroke-linecap="round"/><text id="300" fill="#000" font-size="18" transform="rotate(180)"><tspan x="1" y="-7">300</tspan></text></g><g transform="translate(74, 0)"><line x1=".5" x2=".5" y1="-10" y2="15" stroke="#000" stroke-linecap="round"/><line x1="8.5" x2="8.5" y1="-10" y2="7" stroke="#000" stroke-linecap="round"/><line x1="30.5" x2="30.5" y1="-10" y2="7" stroke="#000" stroke-linecap="round"/><line x1="51.5" x2="51.5" y1="-10" y2="7" stroke="#000" stroke-linecap="round"/><line x1="15.5" x2="15.5" y1="-10" y2="7" stroke="#000" stroke-linecap="round"/><line x1="37.5" x2="37.5" y1="-10" y2="7" stroke="#000" stroke-linecap="round"/><line x1="59.5" x2="59.5" y1="-10" y2="7" stroke="#000" stroke-linecap="round"/><line x1="23.5" x2="23.5" y1="-10" y2="7" stroke="#000" stroke-linecap="round"/><line x1="45.5" x2="45.5" y1="-10" y2="7" stroke="#000" stroke-linecap="round"/><line x1="67.5" x2="67.5" y1="-10" y2="7" stroke="#000" stroke-linecap="round"/><text fill="#000" font-size="18" transform="rotate(180)"><tspan x="1" y="-7">10</tspan></text></g><g transform="translate(666, 0)"><line x1=".5" x2=".5" y1="-10" y2="15" stroke="#000" stroke-linecap="round"/><line x1="8.5" x2="8.5" y1="-10" y2="7" stroke="#000" stroke-linecap="round"/><line x1="30.5" x2="30.5" y1="-10" y2="7" stroke="#000" stroke-linecap="round"/><line x1="51.5" x2="51.5" y1="-10" y2="7" stroke="#000" stroke-linecap="round"/><line x1="15.5" x2="15.5" y1="-10" y2="7" stroke="#000" stroke-linecap="round"/><line x1="37.5" x2="37.5" y1="-10" y2="7" stroke="#000" stroke-linecap="round"/><line x1="59.5" x2="59.5" y1="-10" y2="7" stroke="#000" stroke-linecap="round"/><line x1="23.5" x2="23.5" y1="-10" y2="7" stroke="#000" stroke-linecap="round"/><line x1="45.5" x2="45.5" y1="-10" y2="7" stroke="#000" stroke-linecap="round"/><line x1="67.5" x2="67.5" y1="-10" y2="7" stroke="#000" stroke-linecap="round"/><text id="90" fill="#000" font-size="18" transform="rotate(180)"><tspan x="1" y="-7">90</tspan></text></g><g transform="translate(1258, 0)"><line x1=".5" x2=".5" y1="-10" y2="15" stroke="#000" stroke-linecap="round"/><line x1="8.5" x2="8.5" y1="-10" y2="7" stroke="#000" stroke-linecap="round"/><line x1="30.5" x2="30.5" y1="-10" y2="7" stroke="#000" stroke-linecap="round"/><line x1="51.5" x2="51.5" y1="-10" y2="7" stroke="#000" stroke-linecap="round"/><line x1="15.5" x2="15.5" y1="-10" y2="7" stroke="#000" stroke-linecap="round"/><line x1="37.5" x2="37.5" y1="-10" y2="7" stroke="#000" stroke-linecap="round"/><line x1="59.5" x2="59.5" y1="-10" y2="7" stroke="#000" stroke-linecap="round"/><line x1="23.5" x2="23.5" y1="-10" y2="7" stroke="#000" stroke-linecap="round"/><line x1="45.5" x2="45.5" y1="-10" y2="7" stroke="#000" stroke-linecap="round"/><line x1="67.5" x2="67.5" y1="-10" y2="7" stroke="#000" stroke-linecap="round"/><text id="170" fill="#000" font-size="18" transform="rotate(180)"><tspan x="1" y="-7">170</tspan></text></g><g transform="translate(1850, 0)"><line x1=".5" x2=".5" y1="-10" y2="15" stroke="#000" stroke-linecap="round"/><line x1="8.5" x2="8.5" y1="-10" y2="7" stroke="#000" stroke-linecap="round"/><line x1="30.5" x2="30.5" y1="-10" y2="7" stroke="#000" stroke-linecap="round"/><line x1="51.5" x2="51.5" y1="-10" y2="7" stroke="#000" stroke-linecap="round"/><line x1="15.5" x2="15.5" y1="-10" y2="7" stroke="#000" stroke-linecap="round"/><line x1="37.5" x2="37.5" y1="-10" y2="7" stroke="#000" stroke-linecap="round"/><line x1="59.5" x2="59.5" y1="-10" y2="7" stroke="#000" stroke-linecap="round"/><line x1="23.5" x2="23.5" y1="-10" y2="7" stroke="#000" stroke-linecap="round"/><line x1="45.5" x2="45.5" y1="-10" y2="7" stroke="#000" stroke-linecap="round"/><line x1="67.5" x2="67.5" y1="-10" y2="7" stroke="#000" stroke-linecap="round"/><text id="250" fill="#000" font-size="18" transform="rotate(180)"><tspan x="1" y="-7">250</tspan></text></g><g transform="translate(2664, 0)"><line x1=".5" x2=".5" y1="-10" y2="15" stroke="#000" stroke-linecap="round"/><line x1="8.5" x2="8.5" y1="-10" y2="7" stroke="#000" stroke-linecap="round"/><line x1="30.5" x2="30.5" y1="-10" y2="7" stroke="#000" stroke-linecap="round"/><line x1="51.5" x2="51.5" y1="-10" y2="7" stroke="#000" stroke-linecap="round"/><line x1="15.5" x2="15.5" y1="-10" y2="7" stroke="#000" stroke-linecap="round"/><line x1="37.5" x2="37.5" y1="-10" y2="7" stroke="#000" stroke-linecap="round"/><line x1="59.5" x2="59.5" y1="-10" y2="7" stroke="#000" stroke-linecap="round"/><line x1="23.5" x2="23.5" y1="-10" y2="7" stroke="#000" stroke-linecap="round"/><line x1="45.5" x2="45.5" y1="-10" y2="7" stroke="#000" stroke-linecap="round"/><line x1="67.5" x2="67.5" y1="-10" y2="7" stroke="#000" stroke-linecap="round"/><text id="360" fill="#000" font-size="18" transform="rotate(180)"><tspan x="1" y="-7">360</tspan></text></g><g transform="translate(370, 0)"><line x1=".5" x2=".5" y1="-10" y2="15" stroke="#000" stroke-linecap="round"/><line x1="8.5" x2="8.5" y1="-10" y2="7" stroke="#000" stroke-linecap="round"/><line x1="30.5" x2="30.5" y1="-10" y2="7" stroke="#000" stroke-linecap="round"/><line x1="51.5" x2="51.5" y1="-10" y2="7" stroke="#000" stroke-linecap="round"/><line x1="15.5" x2="15.5" y1="-10" y2="7" stroke="#000" stroke-linecap="round"/><line x1="37.5" x2="37.5" y1="-10" y2="7" stroke="#000" stroke-linecap="round"/><line x1="59.5" x2="59.5" y1="-10" y2="7" stroke="#000" stroke-linecap="round"/><line x1="23.5" x2="23.5" y1="-10" y2="7" stroke="#000" stroke-linecap="round"/><line x1="45.5" x2="45.5" y1="-10" y2="7" stroke="#000" stroke-linecap="round"/><line x1="67.5" x2="67.5" y1="-10" y2="7" stroke="#000" stroke-linecap="round"/><text id="50" fill="#000" font-size="18" transform="rotate(180)"><tspan x="1" y="-7">50</tspan></text></g><g transform="translate(962, 0)"><line x1=".5" x2=".5" y1="-10" y2="15" stroke="#000" stroke-linecap="round"/><line x1="8.5" x2="8.5" y1="-10" y2="7" stroke="#000" stroke-linecap="round"/><line x1="30.5" x2="30.5" y1="-10" y2="7" stroke="#000" stroke-linecap="round"/><line x1="51.5" x2="51.5" y1="-10" y2="7" stroke="#000" stroke-linecap="round"/><line x1="15.5" x2="15.5" y1="-10" y2="7" stroke="#000" stroke-linecap="round"/><line x1="37.5" x2="37.5" y1="-10" y2="7" stroke="#000" stroke-linecap="round"/><line x1="59.5" x2="59.5" y1="-10" y2="7" stroke="#000" stroke-linecap="round"/><line x1="23.5" x2="23.5" y1="-10" y2="7" stroke="#000" stroke-linecap="round"/><line x1="45.5" x2="45.5" y1="-10" y2="7" stroke="#000" stroke-linecap="round"/><line x1="67.5" x2="67.5" y1="-10" y2="7" stroke="#000" stroke-linecap="round"/><text id="130" fill="#000" font-size="18" transform="rotate(180)"><tspan x="1" y="-7">130</tspan></text></g><g transform="translate(1554, 0)"><line x1=".5" x2=".5" y1="-10" y2="15" stroke="#000" stroke-linecap="round"/><line x1="8.5" x2="8.5" y1="-10" y2="7" stroke="#000" stroke-linecap="round"/><line x1="30.5" x2="30.5" y1="-10" y2="7" stroke="#000" stroke-linecap="round"/><line x1="51.5" x2="51.5" y1="-10" y2="7" stroke="#000" stroke-linecap="round"/><line x1="15.5" x2="15.5" y1="-10" y2="7" stroke="#000" stroke-linecap="round"/><line x1="37.5" x2="37.5" y1="-10" y2="7" stroke="#000" stroke-linecap="round"/><line x1="59.5" x2="59.5" y1="-10" y2="7" stroke="#000" stroke-linecap="round"/><line x1="23.5" x2="23.5" y1="-10" y2="7" stroke="#000" stroke-linecap="round"/><line x1="45.5" x2="45.5" y1="-10" y2="7" stroke="#000" stroke-linecap="round"/><line x1="67.5" x2="67.5" y1="-10" y2="7" stroke="#000" stroke-linecap="round"/><text id="210" fill="#000" font-size="18" transform="rotate(180)"><tspan x="1" y="-7">210</tspan></text></g><g transform="translate(2368, 0)"><line x1=".5" x2=".5" y1="-10" y2="15" stroke="#000" stroke-linecap="round"/><line x1="8.5" x2="8.5" y1="-10" y2="7" stroke="#000" stroke-linecap="round"/><line x1="30.5" x2="30.5" y1="-10" y2="7" stroke="#000" stroke-linecap="round"/><line x1="51.5" x2="51.5" y1="-10" y2="7" stroke="#000" stroke-linecap="round"/><line x1="15.5" x2="15.5" y1="-10" y2="7" stroke="#000" stroke-linecap="round"/><line x1="37.5" x2="37.5" y1="-10" y2="7" stroke="#000" stroke-linecap="round"/><line x1="59.5" x2="59.5" y1="-10" y2="7" stroke="#000" stroke-linecap="round"/><line x1="23.5" x2="23.5" y1="-10" y2="7" stroke="#000" stroke-linecap="round"/><line x1="45.5" x2="45.5" y1="-10" y2="7" stroke="#000" stroke-linecap="round"/><line x1="67.5" x2="67.5" y1="-10" y2="7" stroke="#000" stroke-linecap="round"/><text id="320" fill="#000" font-size="18" transform="rotate(180)"><tspan x="1" y="-7">320</tspan></text></g><g transform="translate(2146, 0)"><line x1=".5" x2=".5" y1="-10" y2="15" stroke="#000" stroke-linecap="round"/><line x1="8.5" x2="8.5" y1="-10" y2="7" stroke="#000" stroke-linecap="round"/><line x1="30.5" x2="30.5" y1="-10" y2="7" stroke="#000" stroke-linecap="round"/><line x1="51.5" x2="51.5" y1="-10" y2="7" stroke="#000" stroke-linecap="round"/><line x1="15.5" x2="15.5" y1="-10" y2="7" stroke="#000" stroke-linecap="round"/><line x1="37.5" x2="37.5" y1="-10" y2="7" stroke="#000" stroke-linecap="round"/><line x1="59.5" x2="59.5" y1="-10" y2="7" stroke="#000" stroke-linecap="round"/><line x1="23.5" x2="23.5" y1="-10" y2="7" stroke="#000" stroke-linecap="round"/><line x1="45.5" x2="45.5" y1="-10" y2="7" stroke="#000" stroke-linecap="round"/><line x1="67.5" x2="67.5" y1="-10" y2="7" stroke="#000" stroke-linecap="round"/><text id="290" fill="#000" font-size="18" transform="rotate(180)"><tspan x="1" y="-7">290</tspan></text></g><g transform="translate(222, 0)"><line x1=".5" x2=".5" y1="-10" y2="15" stroke="#000" stroke-linecap="round"/><line x1="8.5" x2="8.5" y1="-10" y2="7" stroke="#000" stroke-linecap="round"/><line x1="30.5" x2="30.5" y1="-10" y2="7" stroke="#000" stroke-linecap="round"/><line x1="51.5" x2="51.5" y1="-10" y2="7" stroke="#000" stroke-linecap="round"/><line x1="15.5" x2="15.5" y1="-10" y2="7" stroke="#000" stroke-linecap="round"/><line x1="37.5" x2="37.5" y1="-10" y2="7" stroke="#000" stroke-linecap="round"/><line x1="59.5" x2="59.5" y1="-10" y2="7" stroke="#000" stroke-linecap="round"/><line x1="23.5" x2="23.5" y1="-10" y2="7" stroke="#000" stroke-linecap="round"/><line x1="45.5" x2="45.5" y1="-10" y2="7" stroke="#000" stroke-linecap="round"/><line x1="67.5" x2="67.5" y1="-10" y2="7" stroke="#000" stroke-linecap="round"/><text id="30" fill="#000" font-size="18" transform="rotate(180)"><tspan x="1" y="-7">30</tspan></text></g><g transform="translate(814, 0)"><line x1=".5" x2=".5" y1="-10" y2="15" stroke="#000" stroke-linecap="round"/><line x1="8.5" x2="8.5" y1="-10" y2="7" stroke="#000" stroke-linecap="round"/><line x1="30.5" x2="30.5" y1="-10" y2="7" stroke="#000" stroke-linecap="round"/><line x1="51.5" x2="51.5" y1="-10" y2="7" stroke="#000" stroke-linecap="round"/><line x1="15.5" x2="15.5" y1="-10" y2="7" stroke="#000" stroke-linecap="round"/><line x1="37.5" x2="37.5" y1="-10" y2="7" stroke="#000" stroke-linecap="round"/><line x1="59.5" x2="59.5" y1="-10" y2="7" stroke="#000" stroke-linecap="round"/><line x1="23.5" x2="23.5" y1="-10" y2="7" stroke="#000" stroke-linecap="round"/><line x1="45.5" x2="45.5" y1="-10" y2="7" stroke="#000" stroke-linecap="round"/><line x1="67.5" x2="67.5" y1="-10" y2="7" stroke="#000" stroke-linecap="round"/><text id="110" fill="#000" font-size="18" transform="rotate(180)"><tspan x="1" y="-7">110</tspan></text></g><g transform="translate(1406, 0)"><line x1=".5" x2=".5" y1="-10" y2="15" stroke="#000" stroke-linecap="round"/><line x1="8.5" x2="8.5" y1="-10" y2="7" stroke="#000" stroke-linecap="round"/><line x1="30.5" x2="30.5" y1="-10" y2="7" stroke="#000" stroke-linecap="round"/><line x1="51.5" x2="51.5" y1="-10" y2="7" stroke="#000" stroke-linecap="round"/><line x1="15.5" x2="15.5" y1="-10" y2="7" stroke="#000" stroke-linecap="round"/><line x1="37.5" x2="37.5" y1="-10" y2="7" stroke="#000" stroke-linecap="round"/><line x1="59.5" x2="59.5" y1="-10" y2="7" stroke="#000" stroke-linecap="round"/><line x1="23.5" x2="23.5" y1="-10" y2="7" stroke="#000" stroke-linecap="round"/><line x1="45.5" x2="45.5" y1="-10" y2="7" stroke="#000" stroke-linecap="round"/><line x1="67.5" x2="67.5" y1="-10" y2="7" stroke="#000" stroke-linecap="round"/><text id="190" fill="#000" font-size="18" transform="rotate(180)"><tspan x="1" y="-7">190</tspan></text></g><g transform="translate(1998, 0)"><line x1=".5" x2=".5" y1="-10" y2="15" stroke="#000" stroke-linecap="round"/><line x1="8.5" x2="8.5" y1="-10" y2="7" stroke="#000" stroke-linecap="round"/><line x1="30.5" x2="30.5" y1="-10" y2="7" stroke="#000" stroke-linecap="round"/><line x1="51.5" x2="51.5" y1="-10" y2="7" stroke="#000" stroke-linecap="round"/><line x1="15.5" x2="15.5" y1="-10" y2="7" stroke="#000" stroke-linecap="round"/><line x1="37.5" x2="37.5" y1="-10" y2="7" stroke="#000" stroke-linecap="round"/><line x1="59.5" x2="59.5" y1="-10" y2="7" stroke="#000" stroke-linecap="round"/><line x1="23.5" x2="23.5" y1="-10" y2="7" stroke="#000" stroke-linecap="round"/><line x1="45.5" x2="45.5" y1="-10" y2="7" stroke="#000" stroke-linecap="round"/><line x1="67.5" x2="67.5" y1="-10" y2="7" stroke="#000" stroke-linecap="round"/><text id="270" fill="#000" font-size="18" transform="rotate(180)"><tspan x="1" y="-7">270</tspan></text></g><g transform="translate(2812, 0)"><line x1=".5" x2=".5" y1="-10" y2="15" stroke="#000" stroke-linecap="round"/><line x1="8.5" x2="8.5" y1="-10" y2="7" stroke="#000" stroke-linecap="round"/><line x1="30.5" x2="30.5" y1="-10" y2="7" stroke="#000" stroke-linecap="round"/><line x1="51.5" x2="51.5" y1="-10" y2="7" stroke="#000" stroke-linecap="round"/><line x1="15.5" x2="15.5" y1="-10" y2="7" stroke="#000" stroke-linecap="round"/><line x1="37.5" x2="37.5" y1="-10" y2="7" stroke="#000" stroke-linecap="round"/><line x1="59.5" x2="59.5" y1="-10" y2="7" stroke="#000" stroke-linecap="round"/><line x1="23.5" x2="23.5" y1="-10" y2="7" stroke="#000" stroke-linecap="round"/><line x1="45.5" x2="45.5" y1="-10" y2="7" stroke="#000" stroke-linecap="round"/><line x1="67.5" x2="67.5" y1="-10" y2="7" stroke="#000" stroke-linecap="round"/><text id="380" fill="#000" font-size="18" transform="rotate(180)"><tspan x="1" y="-7">380</tspan></text></g><g transform="translate(518, 0)"><line x1=".5" x2=".5" y1="-10" y2="15" stroke="#000" stroke-linecap="round"/><line x1="8.5" x2="8.5" y1="-10" y2="7" stroke="#000" stroke-linecap="round"/><line x1="30.5" x2="30.5" y1="-10" y2="7" stroke="#000" stroke-linecap="round"/><line x1="51.5" x2="51.5" y1="-10" y2="7" stroke="#000" stroke-linecap="round"/><line x1="15.5" x2="15.5" y1="-10" y2="7" stroke="#000" stroke-linecap="round"/><line x1="37.5" x2="37.5" y1="-10" y2="7" stroke="#000" stroke-linecap="round"/><line x1="59.5" x2="59.5" y1="-10" y2="7" stroke="#000" stroke-linecap="round"/><line x1="23.5" x2="23.5" y1="-10" y2="7" stroke="#000" stroke-linecap="round"/><line x1="45.5" x2="45.5" y1="-10" y2="7" stroke="#000" stroke-linecap="round"/><line x1="67.5" x2="67.5" y1="-10" y2="7" stroke="#000" stroke-linecap="round"/><text id="70" fill="#000" font-size="18" transform="rotate(180)"><tspan x="2" y="-7">70</tspan></text></g><g transform="translate(1110, 0)"><line x1=".5" x2=".5" y1="-10" y2="15" stroke="#000" stroke-linecap="round"/><line x1="8.5" x2="8.5" y1="-10" y2="7" stroke="#000" stroke-linecap="round"/><line x1="30.5" x2="30.5" y1="-10" y2="7" stroke="#000" stroke-linecap="round"/><line x1="51.5" x2="51.5" y1="-10" y2="7" stroke="#000" stroke-linecap="round"/><line x1="15.5" x2="15.5" y1="-10" y2="7" stroke="#000" stroke-linecap="round"/><line x1="37.5" x2="37.5" y1="-10" y2="7" stroke="#000" stroke-linecap="round"/><line x1="59.5" x2="59.5" y1="-10" y2="7" stroke="#000" stroke-linecap="round"/><line x1="23.5" x2="23.5" y1="-10" y2="7" stroke="#000" stroke-linecap="round"/><line x1="45.5" x2="45.5" y1="-10" y2="7" stroke="#000" stroke-linecap="round"/><line x1="67.5" x2="67.5" y1="-10" y2="7" stroke="#000" stroke-linecap="round"/><text id="150" fill="#000" font-size="18" transform="rotate(180)"><tspan x="1" y="-7">150</tspan></text></g><g transform="translate(1702, 0)"><line x1=".5" x2=".5" y1="-10" y2="15" stroke="#000" stroke-linecap="round"/><line x1="8.5" x2="8.5" y1="-10" y2="7" stroke="#000" stroke-linecap="round"/><line x1="30.5" x2="30.5" y1="-10" y2="7" stroke="#000" stroke-linecap="round"/><line x1="51.5" x2="51.5" y1="-10" y2="7" stroke="#000" stroke-linecap="round"/><line x1="15.5" x2="15.5" y1="-10" y2="7" stroke="#000" stroke-linecap="round"/><line x1="37.5" x2="37.5" y1="-10" y2="7" stroke="#000" stroke-linecap="round"/><line x1="59.5" x2="59.5" y1="-10" y2="7" stroke="#000" stroke-linecap="round"/><line x1="23.5" x2="23.5" y1="-10" y2="7" stroke="#000" stroke-linecap="round"/><line x1="45.5" x2="45.5" y1="-10" y2="7" stroke="#000" stroke-linecap="round"/><line x1="67.5" x2="67.5" y1="-10" y2="7" stroke="#000" stroke-linecap="round"/><text id="230" fill="#000" font-size="18" transform="rotate(180)"><tspan x="1" y="-7">230</tspan></text></g><g transform="translate(2516, 0)"><line x1=".5" x2=".5" y1="-10" y2="15" stroke="#000" stroke-linecap="round"/><line x1="8.5" x2="8.5" y1="-10" y2="7" stroke="#000" stroke-linecap="round"/><line x1="30.5" x2="30.5" y1="-10" y2="7" stroke="#000" stroke-linecap="round"/><line x1="51.5" x2="51.5" y1="-10" y2="7" stroke="#000" stroke-linecap="round"/><line x1="15.5" x2="15.5" y1="-10" y2="7" stroke="#000" stroke-linecap="round"/><line x1="37.5" x2="37.5" y1="-10" y2="7" stroke="#000" stroke-linecap="round"/><line x1="59.5" x2="59.5" y1="-10" y2="7" stroke="#000" stroke-linecap="round"/><line x1="23.5" x2="23.5" y1="-10" y2="7" stroke="#000" stroke-linecap="round"/><line x1="45.5" x2="45.5" y1="-10" y2="7" stroke="#000" stroke-linecap="round"/><line x1="67.5" x2="67.5" y1="-10" y2="7" stroke="#000" stroke-linecap="round"/><text id="340" fill="#000" font-size="18" transform="rotate(180)"><tspan x="1" y="-7">340</tspan></text></g><g transform="translate(2294, 0)"><line x1=".5" x2=".5" y1="-10" y2="15" stroke="#000" stroke-linecap="round"/><line x1="8.5" x2="8.5" y1="-10" y2="7" stroke="#000" stroke-linecap="round"/><line x1="30.5" x2="30.5" y1="-10" y2="7" stroke="#000" stroke-linecap="round"/><line x1="51.5" x2="51.5" y1="-10" y2="7" stroke="#000" stroke-linecap="round"/><line x1="15.5" x2="15.5" y1="-10" y2="7" stroke="#000" stroke-linecap="round"/><line x1="37.5" x2="37.5" y1="-10" y2="7" stroke="#000" stroke-linecap="round"/><line x1="59.5" x2="59.5" y1="-10" y2="7" stroke="#000" stroke-linecap="round"/><line x1="23.5" x2="23.5" y1="-10" y2="7" stroke="#000" stroke-linecap="round"/><line x1="45.5" x2="45.5" y1="-10" y2="7" stroke="#000" stroke-linecap="round"/><line x1="67.5" x2="67.5" y1="-10" y2="7" stroke="#000" stroke-linecap="round"/><text id="310" fill="#000" font-size="18" transform="rotate(180)"><tspan x="1" y="-7">310</tspan></text></g></g></g></svg>